J Edgar 2011 DVDRip XviD-ZOMBiES
******************************************************************************************
Release Name :
Rating : 7.2/10
Genre : Biography, Drama
NFO : Click Me
Screens : 1 , 2
Stars : Leonardo DiCaprio, Armie Hammer, Naomi Watts, Josh Hamilton
Director : Clint Eastwood
Writers : Dustin Lance Black
Release Date : 11 Nov 2011
Movie Runtime : 2 hrs 17 mins
Rated Under : R
Movie Plot : As the face of law enforcement in America for almost 50 years, J. Edgar Hoover was feared and admired, reviled and revered. But behind closed doors, he held secrets that would have destroyed his image, his career and his life. 
http://www.imdb.com/title/tt1616195/
Format : AVI
Format/Info : Audio Video Interleave
File size : 859 MiB
Duration : 2h 16mn
Overall bit rate : 880 Kbps
Writing application : MEncoder SVN-r33823-4.1.2
Writing library : MPlayer
Video
ID : 0
Format : xvid
Codec ID : xvid
Duration : 2h 16mn
Bit rate : 740 Kbps
Width : 640 pixels
Height : 272 pixels
Display aspect ratio : 2.35:1
Frame rate : 23.976 fps
Bits/(Pixel*Frame) : 0.177
Stream size : 722 MiB (84%)
Audio
ID : 1
Format : MPEG Audio
Format version : Version 1
Format profile : Layer 3
Mode : Joint stereo
Mode extension : MS Stereo
Codec ID : 55
Codec ID/Hint : MP3
Duration : 2h 16mn
Bit rate mode : Constant
Bit rate : 128 Kbps
Channel(s) : 2 channels
Sampling rate : 44.1 KHz
Bit depth : 16 bits
Stream size : 125 MiB (15%)
Alignment : Aligned on interleaves
Interleave, duration : 26 ms (0.63 video frame)
Interleave, preload duration : 522 ms
Writing library : LAME3.98.4
Thanks PADDO , just wanted to do 1 cd rip .
 
http://www.aedes.us/e/EnvML.jpg 
http://www.aedes.us/e/EnvML.jpg 
http://www.aedes.us/e/EnvML.jpg 
http://www.aedes.us/e/EnvML.jpg 
http://www.aedes.us/e/EnvML.jpg